<?xml version="1.0" encoding="UTF-8"?>
<!DOCTYPE svg PUBLIC "-//W3C//DTD SVG 1.1//EN"
    "http://www.w3.org/Graphics/SVG/1.1/DTD/svg11.dtd"><svg width="600.0000" stroke-opacity="1" stroke="rgb(0,0,0)" xmlns:xlink="http://www.w3.org/1999/xlink" xmlns="http://www.w3.org/2000/svg" viewBox="0.0 0.0 600.0 304.37956204379554" font-size="1" height="304.3796" version="1.1"><defs></defs><g stroke-opacity="1.0" fill="rgb(0,128,0)" stroke="rgb(0,0,0)" stroke-linejoin="miter" stroke-linecap="butt" stroke-width="1.7093986649171216" stroke-miterlimit="10.0" fill-opacity="1.0"><path d="M 590.1460,250.7299 c 0.0000,-24.1877 -19.6080,-43.7956 -43.7956 -43.7956c -24.1877,-0.0000 -43.7956,19.6080 -43.7956 43.7956c -0.0000,24.1877 19.6080,43.7956 43.7956 43.7956c 24.1877,0.0000 43.7956,-19.6080 43.7956 -43.7956Z"/></g><g stroke-opacity="1.0" fill="rgb(124,164,0)" stroke="rgb(0,0,0)" stroke-linejoin="miter" stroke-linecap="butt" stroke-width="1.7093986649171216" stroke-miterlimit="10.0" fill-opacity="1.0"><path d="M 491.6058,250.7299 c 0.0000,-24.1877 -19.6080,-43.7956 -43.7956 -43.7956c -24.1877,-0.0000 -43.7956,19.6080 -43.7956 43.7956c -0.0000,24.1877 19.6080,43.7956 43.7956 43.7956c 24.1877,0.0000 43.7956,-19.6080 43.7956 -43.7956Z"/></g><g stroke-opacity="1.0" fill="rgb(170,192,0)" stroke="rgb(0,0,0)" stroke-linejoin="miter" stroke-linecap="butt" stroke-width="1.7093986649171216" stroke-miterlimit="10.0" fill-opacity="1.0"><path d="M 393.0657,250.7299 c 0.0000,-24.1877 -19.6080,-43.7956 -43.7956 -43.7956c -24.1877,-0.0000 -43.7956,19.6080 -43.7956 43.7956c -0.0000,24.1877 19.6080,43.7956 43.7956 43.7956c 24.1877,0.0000 43.7956,-19.6080 43.7956 -43.7956Z"/></g><g stroke-opacity="1.0" fill="rgb(203,216,0)" stroke="rgb(0,0,0)" stroke-linejoin="miter" stroke-linecap="butt" stroke-width="1.7093986649171216" stroke-miterlimit="10.0" fill-opacity="1.0"><path d="M 294.5255,250.7299 c 0.0000,-24.1877 -19.6080,-43.7956 -43.7956 -43.7956c -24.1877,-0.0000 -43.7956,19.6080 -43.7956 43.7956c -0.0000,24.1877 19.6080,43.7956 43.7956 43.7956c 24.1877,0.0000 43.7956,-19.6080 43.7956 -43.7956Z"/></g><g stroke-opacity="1.0" fill="rgb(231,237,0)" stroke="rgb(0,0,0)" stroke-linejoin="miter" stroke-linecap="butt" stroke-width="1.7093986649171216" stroke-miterlimit="10.0" fill-opacity="1.0"><path d="M 195.9854,250.7299 c 0.0000,-24.1877 -19.6080,-43.7956 -43.7956 -43.7956c -24.1877,-0.0000 -43.7956,19.6080 -43.7956 43.7956c -0.0000,24.1877 19.6080,43.7956 43.7956 43.7956c 24.1877,0.0000 43.7956,-19.6080 43.7956 -43.7956Z"/></g><g stroke-opacity="1.0" fill="rgb(255,255,0)" stroke="rgb(0,0,0)" stroke-linejoin="miter" stroke-linecap="butt" stroke-width="1.7093986649171216" stroke-miterlimit="10.0" fill-opacity="1.0"><path d="M 97.4453,250.7299 c 0.0000,-24.1877 -19.6080,-43.7956 -43.7956 -43.7956c -24.1877,-0.0000 -43.7956,19.6080 -43.7956 43.7956c -0.0000,24.1877 19.6080,43.7956 43.7956 43.7956c 24.1877,0.0000 43.7956,-19.6080 43.7956 -43.7956Z"/></g><g stroke-opacity="1.0" fill="rgb(0,128,128)" stroke="rgb(0,0,0)" stroke-linejoin="miter" stroke-linecap="butt" stroke-width="1.7093986649171216" stroke-miterlimit="10.0" fill-opacity="1.0"><path d="M 590.1460,152.1898 c 0.0000,-24.1877 -19.6080,-43.7956 -43.7956 -43.7956c -24.1877,-0.0000 -43.7956,19.6080 -43.7956 43.7956c -0.0000,24.1877 19.6080,43.7956 43.7956 43.7956c 24.1877,0.0000 43.7956,-19.6080 43.7956 -43.7956Z"/></g><g stroke-opacity="1.0" fill="rgb(124,136,115)" stroke="rgb(0,0,0)" stroke-linejoin="miter" stroke-linecap="butt" stroke-width="1.7093986649171216" stroke-miterlimit="10.0" fill-opacity="1.0"><path d="M 491.6058,152.1898 c 0.0000,-24.1877 -19.6080,-43.7956 -43.7956 -43.7956c -24.1877,-0.0000 -43.7956,19.6080 -43.7956 43.7956c -0.0000,24.1877 19.6080,43.7956 43.7956 43.7956c 24.1877,0.0000 43.7956,-19.6080 43.7956 -43.7956Z"/></g><g stroke-opacity="1.0" fill="rgb(170,144,101)" stroke="rgb(0,0,0)" stroke-linejoin="miter" stroke-linecap="butt" stroke-width="1.7093986649171216" stroke-miterlimit="10.0" fill-opacity="1.0"><path d="M 393.0657,152.1898 c 0.0000,-24.1877 -19.6080,-43.7956 -43.7956 -43.7956c -24.1877,-0.0000 -43.7956,19.6080 -43.7956 43.7956c -0.0000,24.1877 19.6080,43.7956 43.7956 43.7956c 24.1877,0.0000 43.7956,-19.6080 43.7956 -43.7956Z"/></g><g stroke-opacity="1.0" fill="rgb(203,152,83)" stroke="rgb(0,0,0)" stroke-linejoin="miter" stroke-linecap="butt" stroke-width="1.7093986649171216" stroke-miterlimit="10.0" fill-opacity="1.0"><path d="M 294.5255,152.1898 c 0.0000,-24.1877 -19.6080,-43.7956 -43.7956 -43.7956c -24.1877,-0.0000 -43.7956,19.6080 -43.7956 43.7956c -0.0000,24.1877 19.6080,43.7956 43.7956 43.7956c 24.1877,0.0000 43.7956,-19.6080 43.7956 -43.7956Z"/></g><g stroke-opacity="1.0" fill="rgb(231,158,59)" stroke="rgb(0,0,0)" stroke-linejoin="miter" stroke-linecap="butt" stroke-width="1.7093986649171216" stroke-miterlimit="10.0" fill-opacity="1.0"><path d="M 195.9854,152.1898 c 0.0000,-24.1877 -19.6080,-43.7956 -43.7956 -43.7956c -24.1877,-0.0000 -43.7956,19.6080 -43.7956 43.7956c -0.0000,24.1877 19.6080,43.7956 43.7956 43.7956c 24.1877,0.0000 43.7956,-19.6080 43.7956 -43.7956Z"/></g><g stroke-opacity="1.0" fill="rgb(255,165,0)" stroke="rgb(0,0,0)" stroke-linejoin="miter" stroke-linecap="butt" stroke-width="1.7093986649171216" stroke-miterlimit="10.0" fill-opacity="1.0"><path d="M 97.4453,152.1898 c 0.0000,-24.1877 -19.6080,-43.7956 -43.7956 -43.7956c -24.1877,-0.0000 -43.7956,19.6080 -43.7956 43.7956c -0.0000,24.1877 19.6080,43.7956 43.7956 43.7956c 24.1877,0.0000 43.7956,-19.6080 43.7956 -43.7956Z"/></g><g stroke-opacity="1.0" fill="rgb(56,145,242)" stroke="rgb(0,0,0)" stroke-linejoin="miter" stroke-linecap="butt" stroke-width="1.7093986649171216" stroke-miterlimit="10.0" fill-opacity="1.0"><path d="M 590.1460,53.6496 c 0.0000,-24.1877 -19.6080,-43.7956 -43.7956 -43.7956c -24.1877,-0.0000 -43.7956,19.6080 -43.7956 43.7956c -0.0000,24.1877 19.6080,43.7956 43.7956 43.7956c 24.1877,0.0000 43.7956,-19.6080 43.7956 -43.7956Z"/></g><g stroke-opacity="1.0" fill="rgb(132,131,219)" stroke="rgb(0,0,0)" stroke-linejoin="miter" stroke-linecap="butt" stroke-width="1.7093986649171216" stroke-miterlimit="10.0" fill-opacity="1.0"><path d="M 491.6058,53.6496 c 0.0000,-24.1877 -19.6080,-43.7956 -43.7956 -43.7956c -24.1877,-0.0000 -43.7956,19.6080 -43.7956 43.7956c -0.0000,24.1877 19.6080,43.7956 43.7956 43.7956c 24.1877,0.0000 43.7956,-19.6080 43.7956 -43.7956Z"/></g><g stroke-opacity="1.0" fill="rgb(174,115,193)" stroke="rgb(0,0,0)" stroke-linejoin="miter" stroke-linecap="butt" stroke-width="1.7093986649171216" stroke-miterlimit="10.0" fill-opacity="1.0"><path d="M 393.0657,53.6496 c 0.0000,-24.1877 -19.6080,-43.7956 -43.7956 -43.7956c -24.1877,-0.0000 -43.7956,19.6080 -43.7956 43.7956c -0.0000,24.1877 19.6080,43.7956 43.7956 43.7956c 24.1877,0.0000 43.7956,-19.6080 43.7956 -43.7956Z"/></g><g stroke-opacity="1.0" fill="rgb(206,95,161)" stroke="rgb(0,0,0)" stroke-linejoin="miter" stroke-linecap="butt" stroke-width="1.7093986649171216" stroke-miterlimit="10.0" fill-opacity="1.0"><path d="M 294.5255,53.6496 c 0.0000,-24.1877 -19.6080,-43.7956 -43.7956 -43.7956c -24.1877,-0.0000 -43.7956,19.6080 -43.7956 43.7956c -0.0000,24.1877 19.6080,43.7956 43.7956 43.7956c 24.1877,0.0000 43.7956,-19.6080 43.7956 -43.7956Z"/></g><g stroke-opacity="1.0" fill="rgb(232,67,117)" stroke="rgb(0,0,0)" stroke-linejoin="miter" stroke-linecap="butt" stroke-width="1.7093986649171216" stroke-miterlimit="10.0" fill-opacity="1.0"><path d="M 195.9854,53.6496 c 0.0000,-24.1877 -19.6080,-43.7956 -43.7956 -43.7956c -24.1877,-0.0000 -43.7956,19.6080 -43.7956 43.7956c -0.0000,24.1877 19.6080,43.7956 43.7956 43.7956c 24.1877,0.0000 43.7956,-19.6080 43.7956 -43.7956Z"/></g><g stroke-opacity="1.0" fill="rgb(255,0,0)" stroke="rgb(0,0,0)" stroke-linejoin="miter" stroke-linecap="butt" stroke-width="1.7093986649171216" stroke-miterlimit="10.0" fill-opacity="1.0"><path d="M 97.4453,53.6496 c 0.0000,-24.1877 -19.6080,-43.7956 -43.7956 -43.7956c -24.1877,-0.0000 -43.7956,19.6080 -43.7956 43.7956c -0.0000,24.1877 19.6080,43.7956 43.7956 43.7956c 24.1877,0.0000 43.7956,-19.6080 43.7956 -43.7956Z"/></g></svg>