<?xml version="1.0" encoding="UTF-8"?>
<!DOCTYPE svg PUBLIC "-//W3C//DTD SVG 1.1//EN"
    "http://www.w3.org/Graphics/SVG/1.1/DTD/svg11.dtd"><svg width="600.0000" stroke-opacity="1" stroke="rgb(0,0,0)" xmlns:xlink="http://www.w3.org/1999/xlink" xmlns="http://www.w3.org/2000/svg" viewBox="0.0 0.0 600.0 600.0" font-size="1" height="600.0000" version="1.1"><defs></defs><g stroke-opacity="1.0" fill="rgb(-73,-18,-549)" stroke="rgb(60,153,255)" stroke-linejoin="miter" stroke-linecap="butt" stroke-width="2.4" stroke-miterlimit="10.0" fill-opacity="1.0"><path d="M 75.2101,75.2101 l -0.0000,449.5798 l 449.5798,0.0000 l 0.0000,-449.5798 Z"/></g><g stroke-opacity="1.0" fill="rgb(-36,-9,-275)" stroke="rgb(58,149,249)" stroke-linejoin="miter" stroke-linecap="butt" stroke-width="2.4" stroke-miterlimit="10.0" fill-opacity="1.0"><path d="M 222.2922,9.9907 l -212.3016,367.7171 l 367.7171,212.3016 l 212.3016,-367.7171 Z"/></g><g stroke-opacity="1.0" fill="rgb(0,0,0)" stroke="rgb(56,145,242)" stroke-linejoin="miter" stroke-linecap="butt" stroke-width="2.4" stroke-miterlimit="10.0" fill-opacity="1.0"><path d="M 373.1367,27.0500 l -346.0867,199.8132 l 199.8132,346.0867 l 346.0867,-199.8132 Z"/></g><g stroke-opacity="1.0" fill="rgb(27,9,82)" stroke="rgb(54,141,235)" stroke-linejoin="miter" stroke-linecap="butt" stroke-width="2.4" stroke-miterlimit="10.0" fill-opacity="1.0"><path d="M 487.3249,112.6751 l -374.6498,-0.0000 l -0.0000,374.6498 l 374.6498,0.0000 Z"/></g><g stroke-opacity="1.0" fill="rgb(41,17,113)" stroke="rgb(52,137,228)" stroke-linejoin="miter" stroke-linecap="butt" stroke-width="2.4" stroke-miterlimit="10.0" fill-opacity="1.0"><path d="M 538.8312,236.0054 l -302.8259,-174.8366 l -174.8366,302.8259 l 302.8259,174.8366 Z"/></g><g stroke-opacity="1.0" fill="rgb(51,22,137)" stroke="rgb(50,132,221)" stroke-linejoin="miter" stroke-linecap="butt" stroke-width="2.4" stroke-miterlimit="10.0" fill-opacity="1.0"><path d="M 521.7718,359.4236 l -162.3483,-281.1954 l -281.1954,162.3483 l 162.3483,281.1954 Z"/></g><g stroke-opacity="1.0" fill="rgb(59,27,156)" stroke="rgb(48,127,213)" stroke-linejoin="miter" stroke-linecap="butt" stroke-width="2.4" stroke-miterlimit="10.0" fill-opacity="1.0"><path d="M 449.8599,449.8599 l 0.0000,-299.7199 l -299.7199,-0.0000 l -0.0000,299.7199 Z"/></g><g stroke-opacity="1.0" fill="rgb(67,31,173)" stroke="rgb(46,122,205)" stroke-linejoin="miter" stroke-linecap="butt" stroke-width="2.4" stroke-miterlimit="10.0" fill-opacity="1.0"><path d="M 350.2815,487.6531 l 137.3716,-237.9346 l -237.9346,-137.3716 l -137.3716,237.9346 Z"/></g><g stroke-opacity="1.0" fill="rgb(73,35,188)" stroke="rgb(44,117,197)" stroke-linejoin="miter" stroke-linecap="butt" stroke-width="2.4" stroke-miterlimit="10.0" fill-opacity="1.0"><path d="M 254.2895,470.5937 l 216.3042,-124.8833 l -124.8833,-216.3042 l -216.3042,124.8833 Z"/></g><g stroke-opacity="1.0" fill="rgb(79,38,201)" stroke="rgb(41,111,188)" stroke-linejoin="miter" stroke-linecap="butt" stroke-width="2.4" stroke-miterlimit="10.0" fill-opacity="1.0"><path d="M 187.6051,412.3949 l 224.7899,0.0000 l 0.0000,-224.7899 l -224.7899,-0.0000 Z"/></g><g stroke-opacity="1.0" fill="rgb(84,41,213)" stroke="rgb(39,105,178)" stroke-linejoin="miter" stroke-linecap="butt" stroke-width="2.4" stroke-miterlimit="10.0" fill-opacity="1.0"><path d="M 163.5250,336.5684 l 173.0433,99.9066 l 99.9066,-173.0433 l -173.0433,-99.9066 Z"/></g><g stroke-opacity="1.0" fill="rgb(89,44,225)" stroke="rgb(36,99,168)" stroke-linejoin="miter" stroke-linecap="butt" stroke-width="2.4" stroke-miterlimit="10.0" fill-opacity="1.0"><path d="M 180.5844,268.0027 l 87.4183,151.4129 l 151.4129,-87.4183 l -87.4183,-151.4129 Z"/></g><g stroke-opacity="1.0" fill="rgb(94,46,235)" stroke="rgb(33,92,156)" stroke-linejoin="miter" stroke-linecap="butt" stroke-width="2.4" stroke-miterlimit="10.0" fill-opacity="1.0"><path d="M 225.0700,225.0700 l -0.0000,149.8599 l 149.8599,0.0000 l 0.0000,-149.8599 Z"/></g><g stroke-opacity="1.0" fill="rgb(98,49,245)" stroke="rgb(29,84,144)" stroke-linejoin="miter" stroke-linecap="butt" stroke-width="2.4" stroke-miterlimit="10.0" fill-opacity="1.0"><path d="M 277.1448,214.7031 l -62.4416,108.1521 l 108.1521,62.4416 l 62.4416,-108.1521 Z"/></g><g stroke-opacity="1.0" fill="rgb(102,51,255)" stroke="rgb(25,75,130)" stroke-linejoin="miter" stroke-linecap="butt" stroke-width="2.4" stroke-miterlimit="10.0" fill-opacity="1.0"><path d="M 318.2842,231.7625 l -86.5217,49.9533 l 49.9533,86.5217 l 86.5217,-49.9533 Z"/></g><g stroke-opacity="1.0" fill="rgb(106,53,264)" stroke="rgb(21,65,114)" stroke-linejoin="miter" stroke-linecap="butt" stroke-width="2.4" stroke-miterlimit="10.0" fill-opacity="1.0"><path d="M 337.4650,262.5350 l -74.9300,0.0000 l -0.0000,74.9300 l 74.9300,0.0000 Z"/></g><g stroke-opacity="1.0" fill="rgb(110,55,273)" stroke="rgb(15,53,94)" stroke-linejoin="miter" stroke-linecap="butt" stroke-width="2.4" stroke-miterlimit="10.0" fill-opacity="1.0"><path d="M 334.1187,290.8579 l -43.2608,-24.9767 l -24.9767,43.2608 l 43.2608,24.9767 Z"/></g><g stroke-opacity="1.0" fill="rgb(113,57,281)" stroke="rgb(8,36,67)" stroke-linejoin="miter" stroke-linecap="butt" stroke-width="2.4" stroke-miterlimit="10.0" fill-opacity="1.0"><path d="M 317.0594,304.5710 l -12.4883,-21.6304 l -21.6304,12.4883 l 12.4883,21.6304 Z"/></g><g stroke-opacity="1.0" fill="rgb(116,59,288)" stroke="rgb(2,12,27)" stroke-linejoin="miter" stroke-linecap="butt" stroke-width="2.4" stroke-miterlimit="10.0" fill-opacity="1.0"><path d="M 302.7451,302.2229 l -0.5222,-4.9680 l -4.9680,0.5222 l 0.5222,4.9680 Z"/></g></svg>