<?xml version="1.0" encoding="UTF-8"?>
<!DOCTYPE svg PUBLIC "-//W3C//DTD SVG 1.1//EN"
    "http://www.w3.org/Graphics/SVG/1.1/DTD/svg11.dtd"><svg width="600.0000" stroke-opacity="1" stroke="rgb(0,0,0)" xmlns:xlink="http://www.w3.org/1999/xlink" xmlns="http://www.w3.org/2000/svg" viewBox="0.0 0.0 600.0 600.0" font-size="1" height="600.0000" version="1.1"><defs></defs><g stroke-opacity="1.0" fill="rgb(113,57,281)" stroke="rgb(-26,-188,-586)" stroke-linejoin="miter" stroke-linecap="butt" stroke-width="2.4" stroke-miterlimit="10.0" fill-opacity="1.0"><path d="M 529.1637,529.1637 l 0.0000,-458.3275 l -458.3275,-0.0000 l -0.0000,458.3275 Z"/></g><g stroke-opacity="1.0" fill="rgb(111,56,275)" stroke="rgb(-20,-141,-440)" stroke-linejoin="miter" stroke-linecap="butt" stroke-width="2.4" stroke-miterlimit="10.0" fill-opacity="1.0"><path d="M 380.3848,600.0000 l 219.6152,-380.3848 l -380.3848,-219.6152 l -219.6152,380.3848 Z"/></g><g stroke-opacity="1.0" fill="rgb(108,54,269)" stroke="rgb(-13,-94,-293)" stroke-linejoin="miter" stroke-linecap="butt" stroke-width="2.4" stroke-miterlimit="10.0" fill-opacity="1.0"><path d="M 223.1102,586.9565 l 363.8463,-210.0668 l -210.0668,-363.8463 l -363.8463,210.0668 Z"/></g><g stroke-opacity="1.0" fill="rgb(105,53,262)" stroke="rgb(-7,-47,-147)" stroke-linejoin="miter" stroke-linecap="butt" stroke-width="2.4" stroke-miterlimit="10.0" fill-opacity="1.0"><path d="M 99.4817,500.5183 l 401.0365,0.0000 l 0.0000,-401.0365 l -401.0365,-0.0000 Z"/></g><g stroke-opacity="1.0" fill="rgb(102,51,255)" stroke="rgb(0,0,0)" stroke-linejoin="miter" stroke-linecap="butt" stroke-width="2.4" stroke-miterlimit="10.0" fill-opacity="1.0"><path d="M 39.1304,369.8998 l 330.7694,190.9698 l 190.9698,-330.7694 l -330.7694,-190.9698 Z"/></g><g stroke-opacity="1.0" fill="rgb(99,49,248)" stroke="rgb(7,32,60)" stroke-linejoin="miter" stroke-linecap="butt" stroke-width="2.4" stroke-miterlimit="10.0" fill-opacity="1.0"><path d="M 52.1739,233.5952 l 181.4213,314.2309 l 314.2309,-181.4213 l -181.4213,-314.2309 Z"/></g><g stroke-opacity="1.0" fill="rgb(96,47,240)" stroke="rgb(13,47,84)" stroke-linejoin="miter" stroke-linecap="butt" stroke-width="2.4" stroke-miterlimit="10.0" fill-opacity="1.0"><path d="M 128.1272,128.1272 l -0.0000,343.7456 l 343.7456,0.0000 l 0.0000,-343.7456 Z"/></g><g stroke-opacity="1.0" fill="rgb(92,46,233)" stroke="rgb(18,58,102)" stroke-linejoin="miter" stroke-linecap="butt" stroke-width="2.4" stroke-miterlimit="10.0" fill-opacity="1.0"><path d="M 240.5852,78.2609 l -162.3243,281.1540 l 281.1540,162.3243 l 162.3243,-281.1540 Z"/></g><g stroke-opacity="1.0" fill="rgb(89,44,225)" stroke="rgb(22,67,117)" stroke-linejoin="miter" stroke-linecap="butt" stroke-width="2.4" stroke-miterlimit="10.0" fill-opacity="1.0"><path d="M 355.9198,91.3043 l -264.6155,152.7758 l 152.7758,264.6155 l 264.6155,-152.7758 Z"/></g><g stroke-opacity="1.0" fill="rgb(85,42,216)" stroke="rgb(25,75,130)" stroke-linejoin="miter" stroke-linecap="butt" stroke-width="2.4" stroke-miterlimit="10.0" fill-opacity="1.0"><path d="M 443.2273,156.7727 l -286.4547,-0.0000 l -0.0000,286.4547 l 286.4547,0.0000 Z"/></g><g stroke-opacity="1.0" fill="rgb(81,39,207)" stroke="rgb(28,82,141)" stroke-linejoin="miter" stroke-linecap="butt" stroke-width="2.4" stroke-miterlimit="10.0" fill-opacity="1.0"><path d="M 482.6087,251.0701 l -231.5385,-133.6788 l -133.6788,231.5385 l 231.5385,133.6788 Z"/></g><g stroke-opacity="1.0" fill="rgb(77,37,198)" stroke="rgb(31,89,151)" stroke-linejoin="miter" stroke-linecap="butt" stroke-width="2.4" stroke-miterlimit="10.0" fill-opacity="1.0"><path d="M 469.5652,345.4349 l -124.1304,-215.0001 l -215.0001,124.1304 l 124.1304,215.0001 Z"/></g><g stroke-opacity="1.0" fill="rgb(73,35,188)" stroke="rgb(34,95,161)" stroke-linejoin="miter" stroke-linecap="butt" stroke-width="2.4" stroke-miterlimit="10.0" fill-opacity="1.0"><path d="M 414.5819,414.5819 l 0.0000,-229.1637 l -229.1637,-0.0000 l -0.0000,229.1637 Z"/></g><g stroke-opacity="1.0" fill="rgb(68,32,177)" stroke="rgb(36,100,170)" stroke-linejoin="miter" stroke-linecap="butt" stroke-width="2.4" stroke-miterlimit="10.0" fill-opacity="1.0"><path d="M 338.4449,443.4783 l 105.0334,-181.9231 l -181.9231,-105.0334 l -105.0334,181.9231 Z"/></g><g stroke-opacity="1.0" fill="rgb(63,29,165)" stroke="rgb(39,105,178)" stroke-linejoin="miter" stroke-linecap="butt" stroke-width="2.4" stroke-miterlimit="10.0" fill-opacity="1.0"><path d="M 265.0501,430.4348 l 165.3847,-95.4849 l -95.4849,-165.3847 l -165.3847,95.4849 Z"/></g><g stroke-opacity="1.0" fill="rgb(57,26,152)" stroke="rgb(41,110,186)" stroke-linejoin="miter" stroke-linecap="butt" stroke-width="2.4" stroke-miterlimit="10.0" fill-opacity="1.0"><path d="M 214.0636,385.9364 l 171.8728,0.0000 l 0.0000,-171.8728 l -171.8728,-0.0000 Z"/></g><g stroke-opacity="1.0" fill="rgb(51,22,137)" stroke="rgb(43,115,193)" stroke-linejoin="miter" stroke-linecap="butt" stroke-width="2.4" stroke-miterlimit="10.0" fill-opacity="1.0"><path d="M 195.6522,327.9599 l 132.3077,76.3879 l 76.3879,-132.3077 l -132.3077,-76.3879 Z"/></g><g stroke-opacity="1.0" fill="rgb(44,18,120)" stroke="rgb(45,119,200)" stroke-linejoin="miter" stroke-linecap="butt" stroke-width="2.4" stroke-miterlimit="10.0" fill-opacity="1.0"><path d="M 208.6957,275.5351 l 66.8394,115.7693 l 115.7693,-66.8394 l -66.8394,-115.7693 Z"/></g><g stroke-opacity="1.0" fill="rgb(35,13,99)" stroke="rgb(46,123,207)" stroke-linejoin="miter" stroke-linecap="butt" stroke-width="2.4" stroke-miterlimit="10.0" fill-opacity="1.0"><path d="M 242.7091,242.7091 l -0.0000,114.5819 l 114.5819,0.0000 l 0.0000,-114.5819 Z"/></g><g stroke-opacity="1.0" fill="rgb(23,7,71)" stroke="rgb(48,127,213)" stroke-linejoin="miter" stroke-linecap="butt" stroke-width="2.4" stroke-miterlimit="10.0" fill-opacity="1.0"><path d="M 282.5251,234.7826 l -47.7424,82.6923 l 82.6923,47.7424 l 47.7424,-82.6923 Z"/></g><g stroke-opacity="1.0" fill="rgb(0,0,0)" stroke="rgb(50,131,219)" stroke-linejoin="miter" stroke-linecap="butt" stroke-width="2.4" stroke-miterlimit="10.0" fill-opacity="1.0"><path d="M 313.9800,247.8261 l -66.1539,38.1940 l 38.1940,66.1539 l 66.1539,-38.1940 Z"/></g><g stroke-opacity="1.0" fill="rgb(-27,-7,-206)" stroke="rgb(52,135,225)" stroke-linejoin="miter" stroke-linecap="butt" stroke-width="2.4" stroke-miterlimit="10.0" fill-opacity="1.0"><path d="M 328.6455,271.3545 l -57.2909,0.0000 l -0.0000,57.2909 l 57.2909,0.0000 Z"/></g><g stroke-opacity="1.0" fill="rgb(-55,-14,-412)" stroke="rgb(53,139,231)" stroke-linejoin="miter" stroke-linecap="butt" stroke-width="2.4" stroke-miterlimit="10.0" fill-opacity="1.0"><path d="M 326.0870,293.0100 l -33.0769,-19.0970 l -19.0970,33.0769 l 33.0769,19.0970 Z"/></g><g stroke-opacity="1.0" fill="rgb(-82,-20,-618)" stroke="rgb(55,142,237)" stroke-linejoin="miter" stroke-linecap="butt" stroke-width="2.4" stroke-miterlimit="10.0" fill-opacity="1.0"><path d="M 313.0435,303.4950 l -9.5485,-16.5385 l -16.5385,9.5485 l 9.5485,16.5385 Z"/></g><g stroke-opacity="1.0" fill="rgb(-104,-26,-782)" stroke="rgb(56,145,241)" stroke-linejoin="miter" stroke-linecap="butt" stroke-width="2.4" stroke-miterlimit="10.0" fill-opacity="1.0"><path d="M 302.0989,301.6996 l -0.3992,-3.7985 l -3.7985,0.3992 l 0.3992,3.7985 Z"/></g></svg>