<?xml version="1.0" encoding="UTF-8"?>
<!DOCTYPE svg PUBLIC "-//W3C//DTD SVG 1.1//EN"
    "http://www.w3.org/Graphics/SVG/1.1/DTD/svg11.dtd"><svg width="600.0000" stroke-opacity="1" stroke="rgb(0,0,0)" xmlns:xlink="http://www.w3.org/1999/xlink" xmlns="http://www.w3.org/2000/svg" viewBox="0.0 0.0 600.0 600.0000000000001" font-size="1" height="600.0000" version="1.1"><defs></defs><g stroke-opacity="1.0" fill="rgb(102,51,255)" stroke="rgb(0,0,0)" stroke-linejoin="miter" stroke-linecap="butt" stroke-width="2.4" stroke-miterlimit="10.0" fill-opacity="1.0"><path d="M 0.0000,380.3848 l 380.3848,219.6152 l 219.6152,-380.3848 l -380.3848,-219.6152 Z"/></g><g stroke-opacity="1.0" fill="rgb(107,51,255)" stroke="rgb(0,0,0)" stroke-linejoin="miter" stroke-linecap="butt" stroke-width="2.4" stroke-miterlimit="10.0" fill-opacity="1.0"><path d="M 15.0000,223.6345 l 208.6345,361.3655 l 361.3655,-208.6345 l -208.6345,-361.3655 Z"/></g><g stroke-opacity="1.0" fill="rgb(113,51,255)" stroke="rgb(0,0,0)" stroke-linejoin="miter" stroke-linecap="butt" stroke-width="2.4" stroke-miterlimit="10.0" fill-opacity="1.0"><path d="M 102.3463,102.3463 l -0.0000,395.3074 l 395.3074,0.0000 l 0.0000,-395.3074 Z"/></g><g stroke-opacity="1.0" fill="rgb(120,51,255)" stroke="rgb(0,0,0)" stroke-linejoin="miter" stroke-linecap="butt" stroke-width="2.4" stroke-miterlimit="10.0" fill-opacity="1.0"><path d="M 231.6730,45.0000 l -186.6730,323.3270 l 323.3270,186.6730 l 186.6730,-323.3270 Z"/></g><g stroke-opacity="1.0" fill="rgb(128,51,255)" stroke="rgb(0,0,0)" stroke-linejoin="miter" stroke-linecap="butt" stroke-width="2.4" stroke-miterlimit="10.0" fill-opacity="1.0"><path d="M 364.3078,60.0000 l -304.3078,175.6922 l 175.6922,304.3078 l 304.3078,-175.6922 Z"/></g><g stroke-opacity="1.0" fill="rgb(136,51,255)" stroke="rgb(0,0,0)" stroke-linejoin="miter" stroke-linecap="butt" stroke-width="2.4" stroke-miterlimit="10.0" fill-opacity="1.0"><path d="M 464.7114,135.2886 l -329.4229,-0.0000 l -0.0000,329.4229 l 329.4229,0.0000 Z"/></g><g stroke-opacity="1.0" fill="rgb(146,51,255)" stroke="rgb(0,0,0)" stroke-linejoin="miter" stroke-linecap="butt" stroke-width="2.4" stroke-miterlimit="10.0" fill-opacity="1.0"><path d="M 510.0000,243.7307 l -266.2693,-153.7307 l -153.7307,266.2693 l 266.2693,153.7307 Z"/></g><g stroke-opacity="1.0" fill="rgb(157,51,255)" stroke="rgb(0,0,0)" stroke-linejoin="miter" stroke-linecap="butt" stroke-width="2.4" stroke-miterlimit="10.0" fill-opacity="1.0"><path d="M 495.0000,352.2501 l -142.7499,-247.2501 l -247.2501,142.7499 l 142.7499,247.2501 Z"/></g><g stroke-opacity="1.0" fill="rgb(170,51,255)" stroke="rgb(0,0,0)" stroke-linejoin="miter" stroke-linecap="butt" stroke-width="2.4" stroke-miterlimit="10.0" fill-opacity="1.0"><path d="M 431.7691,431.7691 l 0.0000,-263.5383 l -263.5383,-0.0000 l -0.0000,263.5383 Z"/></g><g stroke-opacity="1.0" fill="rgb(185,51,255)" stroke="rgb(0,0,0)" stroke-linejoin="miter" stroke-linecap="butt" stroke-width="2.4" stroke-miterlimit="10.0" fill-opacity="1.0"><path d="M 344.2116,465.0000 l 120.7884,-209.2116 l -209.2116,-120.7884 l -120.7884,209.2116 Z"/></g><g stroke-opacity="1.0" fill="rgb(204,51,255)" stroke="rgb(0,0,0)" stroke-linejoin="miter" stroke-linecap="butt" stroke-width="2.4" stroke-miterlimit="10.0" fill-opacity="1.0"><path d="M 259.8076,450.0000 l 190.1924,-109.8076 l -109.8076,-190.1924 l -190.1924,109.8076 Z"/></g><g stroke-opacity="1.0" fill="rgb(227,51,255)" stroke="rgb(0,0,0)" stroke-linejoin="miter" stroke-linecap="butt" stroke-width="2.4" stroke-miterlimit="10.0" fill-opacity="1.0"><path d="M 201.1731,398.8269 l 197.6537,0.0000 l 0.0000,-197.6537 l -197.6537,-0.0000 Z"/></g><g stroke-opacity="1.0" fill="rgb(255,51,255)" stroke="rgb(0,0,0)" stroke-linejoin="miter" stroke-linecap="butt" stroke-width="2.4" stroke-miterlimit="10.0" fill-opacity="1.0"><path d="M 180.0000,332.1539 l 152.1539,87.8461 l 87.8461,-152.1539 l -152.1539,-87.8461 Z"/></g><g stroke-opacity="1.0" fill="rgb(291,51,255)" stroke="rgb(0,0,0)" stroke-linejoin="miter" stroke-linecap="butt" stroke-width="2.4" stroke-miterlimit="10.0" fill-opacity="1.0"><path d="M 195.0000,271.8653 l 76.8653,133.1347 l 133.1347,-76.8653 l -76.8653,-133.1347 Z"/></g><g stroke-opacity="1.0" fill="rgb(340,51,255)" stroke="rgb(0,0,0)" stroke-linejoin="miter" stroke-linecap="butt" stroke-width="2.4" stroke-miterlimit="10.0" fill-opacity="1.0"><path d="M 234.1154,234.1154 l -0.0000,131.7691 l 131.7691,0.0000 l 0.0000,-131.7691 Z"/></g><g stroke-opacity="1.0" fill="rgb(408,51,255)" stroke="rgb(0,0,0)" stroke-linejoin="miter" stroke-linecap="butt" stroke-width="2.4" stroke-miterlimit="10.0" fill-opacity="1.0"><path d="M 279.9038,225.0000 l -54.9038,95.0962 l 95.0962,54.9038 l 54.9038,-95.0962 Z"/></g><g stroke-opacity="1.0" fill="rgb(510,51,255)" stroke="rgb(0,0,0)" stroke-linejoin="miter" stroke-linecap="butt" stroke-width="2.4" stroke-miterlimit="10.0" fill-opacity="1.0"><path d="M 316.0770,240.0000 l -76.0770,43.9230 l 43.9230,76.0770 l 76.0770,-43.9230 Z"/></g><g stroke-opacity="1.0" fill="rgb(680,51,255)" stroke="rgb(0,0,0)" stroke-linejoin="miter" stroke-linecap="butt" stroke-width="2.4" stroke-miterlimit="10.0" fill-opacity="1.0"><path d="M 332.9423,267.0577 l -65.8846,0.0000 l -0.0000,65.8846 l 65.8846,0.0000 Z"/></g><g stroke-opacity="1.0" fill="rgb(1020,51,255)" stroke="rgb(0,0,0)" stroke-linejoin="miter" stroke-linecap="butt" stroke-width="2.4" stroke-miterlimit="10.0" fill-opacity="1.0"><path d="M 330.0000,291.9615 l -38.0385,-21.9615 l -21.9615,38.0385 l 38.0385,21.9615 Z"/></g><g stroke-opacity="1.0" fill="rgb(2040,51,255)" stroke="rgb(0,0,0)" stroke-linejoin="miter" stroke-linecap="butt" stroke-width="2.4" stroke-miterlimit="10.0" fill-opacity="1.0"><path d="M 315.0000,304.0192 l -10.9808,-19.0192 l -19.0192,10.9808 l 10.9808,19.0192 Z"/></g></svg>