<?xml version="1.0" encoding="UTF-8"?>
<!DOCTYPE svg PUBLIC "-//W3C//DTD SVG 1.1//EN"
    "http://www.w3.org/Graphics/SVG/1.1/DTD/svg11.dtd"><svg width="600.0000" stroke-opacity="1" stroke="rgb(0,0,0)" xmlns:xlink="http://www.w3.org/1999/xlink" xmlns="http://www.w3.org/2000/svg" viewBox="0.0 0.0 600.0 612.3985877596612" font-size="1" height="612.3986" version="1.1"><defs></defs><g stroke-opacity="1.0" fill="rgb(0,0,0)" stroke="rgb(255,0,0)" stroke-linejoin="miter" stroke-linecap="butt" stroke-width="2.424670378111785" stroke-miterlimit="10.0" fill-opacity="0.0"><path d="M 571.7817,546.0327 l -3.4459,-23.9666 l -15.8562,-18.2990 l -23.2323,-6.8216 l -23.2323,6.8216 l -15.8562,18.2990 l -3.4459,23.9666 l 10.0585,22.0250 l 20.3693,13.0906 l 24.2131,-0.0000 l 20.3693,-13.0906 Z"/></g><g stroke-opacity="1.0" fill="rgb(0,0,0)" stroke="rgb(243,0,89)" stroke-linejoin="miter" stroke-linecap="butt" stroke-width="2.424670378111785" stroke-miterlimit="10.0" fill-opacity="0.0"><path d="M 551.4124,559.1233 l -3.4459,-23.9666 l -15.8562,-18.2990 l -23.2323,-6.8216 l -23.2323,6.8216 l -15.8562,18.2990 l -3.4459,23.9666 l 10.0585,22.0250 l 20.3693,13.0906 l 24.2131,-0.0000 l 20.3693,-13.0906 Z"/></g><g stroke-opacity="1.0" fill="rgb(0,0,0)" stroke="rgb(231,0,124)" stroke-linejoin="miter" stroke-linecap="butt" stroke-width="2.424670378111785" stroke-miterlimit="10.0" fill-opacity="0.0"><path d="M 527.1994,559.1233 l -3.4459,-23.9666 l -15.8562,-18.2990 l -23.2323,-6.8216 l -23.2323,6.8216 l -15.8562,18.2990 l -3.4459,23.9666 l 10.0585,22.0250 l 20.3693,13.0906 l 24.2131,-0.0000 l 20.3693,-13.0906 Z"/></g><g stroke-opacity="1.0" fill="rgb(0,0,0)" stroke="rgb(218,0,149)" stroke-linejoin="miter" stroke-linecap="butt" stroke-width="2.424670378111785" stroke-miterlimit="10.0" fill-opacity="0.0"><path d="M 506.8301,546.0327 l -3.4459,-23.9666 l -15.8562,-18.2990 l -23.2323,-6.8216 l -23.2323,6.8216 l -15.8562,18.2990 l -3.4459,23.9666 l 10.0585,22.0250 l 20.3693,13.0906 l 24.2131,-0.0000 l 20.3693,-13.0906 Z"/></g><g stroke-opacity="1.0" fill="rgb(0,0,0)" stroke="rgb(203,0,170)" stroke-linejoin="miter" stroke-linecap="butt" stroke-width="2.424670378111785" stroke-miterlimit="10.0" fill-opacity="0.0"><path d="M 496.7716,524.0077 l -3.4459,-23.9666 l -15.8562,-18.2990 l -23.2323,-6.8216 l -23.2323,6.8216 l -15.8562,18.2990 l -3.4459,23.9666 l 10.0585,22.0250 l 20.3693,13.0906 l 24.2131,-0.0000 l 20.3693,-13.0906 Z"/></g><g stroke-opacity="1.0" fill="rgb(0,0,0)" stroke="rgb(188,0,188)" stroke-linejoin="miter" stroke-linecap="butt" stroke-width="2.424670378111785" stroke-miterlimit="10.0" fill-opacity="0.0"><path d="M 500.2175,500.0411 l -3.4459,-23.9666 l -15.8562,-18.2990 l -23.2323,-6.8216 l -23.2323,6.8216 l -15.8562,18.2990 l -3.4459,23.9666 l 10.0585,22.0250 l 20.3693,13.0906 l 24.2131,-0.0000 l 20.3693,-13.0906 Z"/></g><g stroke-opacity="1.0" fill="rgb(0,0,0)" stroke="rgb(170,0,203)" stroke-linejoin="miter" stroke-linecap="butt" stroke-width="2.424670378111785" stroke-miterlimit="10.0" fill-opacity="0.0"><path d="M 516.0736,481.7421 l -3.4459,-23.9666 l -15.8562,-18.2990 l -23.2323,-6.8216 l -23.2323,6.8216 l -15.8562,18.2990 l -3.4459,23.9666 l 10.0585,22.0250 l 20.3693,13.0906 l 24.2131,-0.0000 l 20.3693,-13.0906 Z"/></g><g stroke-opacity="1.0" fill="rgb(0,0,0)" stroke="rgb(149,0,218)" stroke-linejoin="miter" stroke-linecap="butt" stroke-width="2.424670378111785" stroke-miterlimit="10.0" fill-opacity="0.0"><path d="M 539.3059,474.9205 l -3.4459,-23.9666 l -15.8562,-18.2990 l -23.2323,-6.8216 l -23.2323,6.8216 l -15.8562,18.2990 l -3.4459,23.9666 l 10.0585,22.0250 l 20.3693,13.0906 l 24.2131,-0.0000 l 20.3693,-13.0906 Z"/></g><g stroke-opacity="1.0" fill="rgb(0,0,0)" stroke="rgb(124,0,231)" stroke-linejoin="miter" stroke-linecap="butt" stroke-width="2.424670378111785" stroke-miterlimit="10.0" fill-opacity="0.0"><path d="M 562.5382,481.7421 l -3.4459,-23.9666 l -15.8562,-18.2990 l -23.2323,-6.8216 l -23.2323,6.8216 l -15.8562,18.2990 l -3.4459,23.9666 l 10.0585,22.0250 l 20.3693,13.0906 l 24.2131,-0.0000 l 20.3693,-13.0906 Z"/></g><g stroke-opacity="1.0" fill="rgb(0,0,0)" stroke="rgb(89,0,243)" stroke-linejoin="miter" stroke-linecap="butt" stroke-width="2.424670378111785" stroke-miterlimit="10.0" fill-opacity="0.0"><path d="M 578.3943,500.0411 l -3.4459,-23.9666 l -15.8562,-18.2990 l -23.2323,-6.8216 l -23.2323,6.8216 l -15.8562,18.2990 l -3.4459,23.9666 l 10.0585,22.0250 l 20.3693,13.0906 l 24.2131,-0.0000 l 20.3693,-13.0906 Z"/></g><g stroke-opacity="1.0" fill="rgb(0,0,0)" stroke="rgb(0,0,255)" stroke-linejoin="miter" stroke-linecap="butt" stroke-width="2.424670378111785" stroke-miterlimit="10.0" fill-opacity="0.0"><path d="M 581.8402,524.0077 l -3.4459,-23.9666 l -15.8562,-18.2990 l -23.2323,-6.8216 l -23.2323,6.8216 l -15.8562,18.2990 l -3.4459,23.9666 l 10.0585,22.0250 l 20.3693,13.0906 l 24.2131,-0.0000 l 20.3693,-13.0906 Z"/></g><g stroke-opacity="1.0" fill="rgb(0,0,0)" stroke="rgb(255,0,0)" stroke-linejoin="miter" stroke-linecap="butt" stroke-width="2.424670378111785" stroke-miterlimit="10.0" fill-opacity="0.0"><path d="M 347.6387,577.3458 l 8.1377,-25.0452 l -8.1377,-25.0452 l -21.3047,-15.4788 l -26.3340,0.0000 l -21.3047,15.4788 l -8.1377,25.0452 l 8.1377,25.0452 l 21.3047,15.4788 l 26.3340,-0.0000 Z"/></g><g stroke-opacity="1.0" fill="rgb(0,0,0)" stroke="rgb(242,0,94)" stroke-linejoin="miter" stroke-linecap="butt" stroke-width="2.424670378111785" stroke-miterlimit="10.0" fill-opacity="0.0"><path d="M 321.3047,577.3458 l 8.1377,-25.0452 l -8.1377,-25.0452 l -21.3047,-15.4788 l -26.3340,0.0000 l -21.3047,15.4788 l -8.1377,25.0452 l 8.1377,25.0452 l 21.3047,15.4788 l 26.3340,-0.0000 Z"/></g><g stroke-opacity="1.0" fill="rgb(0,0,0)" stroke="rgb(228,0,130)" stroke-linejoin="miter" stroke-linecap="butt" stroke-width="2.424670378111785" stroke-miterlimit="10.0" fill-opacity="0.0"><path d="M 300.0000,561.8670 l 8.1377,-25.0452 l -8.1377,-25.0452 l -21.3047,-15.4788 l -26.3340,0.0000 l -21.3047,15.4788 l -8.1377,25.0452 l 8.1377,25.0452 l 21.3047,15.4788 l 26.3340,-0.0000 Z"/></g><g stroke-opacity="1.0" fill="rgb(0,0,0)" stroke="rgb(213,0,156)" stroke-linejoin="miter" stroke-linecap="butt" stroke-width="2.424670378111785" stroke-miterlimit="10.0" fill-opacity="0.0"><path d="M 291.8623,536.8219 l 8.1377,-25.0452 l -8.1377,-25.0452 l -21.3047,-15.4788 l -26.3340,0.0000 l -21.3047,15.4788 l -8.1377,25.0452 l 8.1377,25.0452 l 21.3047,15.4788 l 26.3340,-0.0000 Z"/></g><g stroke-opacity="1.0" fill="rgb(0,0,0)" stroke="rgb(197,0,178)" stroke-linejoin="miter" stroke-linecap="butt" stroke-width="2.424670378111785" stroke-miterlimit="10.0" fill-opacity="0.0"><path d="M 300.0000,511.7767 l 8.1377,-25.0452 l -8.1377,-25.0452 l -21.3047,-15.4788 l -26.3340,0.0000 l -21.3047,15.4788 l -8.1377,25.0452 l 8.1377,25.0452 l 21.3047,15.4788 l 26.3340,-0.0000 Z"/></g><g stroke-opacity="1.0" fill="rgb(0,0,0)" stroke="rgb(178,0,197)" stroke-linejoin="miter" stroke-linecap="butt" stroke-width="2.424670378111785" stroke-miterlimit="10.0" fill-opacity="0.0"><path d="M 321.3047,496.2979 l 8.1377,-25.0452 l -8.1377,-25.0452 l -21.3047,-15.4788 l -26.3340,0.0000 l -21.3047,15.4788 l -8.1377,25.0452 l 8.1377,25.0452 l 21.3047,15.4788 l 26.3340,-0.0000 Z"/></g><g stroke-opacity="1.0" fill="rgb(0,0,0)" stroke="rgb(156,0,213)" stroke-linejoin="miter" stroke-linecap="butt" stroke-width="2.424670378111785" stroke-miterlimit="10.0" fill-opacity="0.0"><path d="M 347.6387,496.2979 l 8.1377,-25.0452 l -8.1377,-25.0452 l -21.3047,-15.4788 l -26.3340,0.0000 l -21.3047,15.4788 l -8.1377,25.0452 l 8.1377,25.0452 l 21.3047,15.4788 l 26.3340,-0.0000 Z"/></g><g stroke-opacity="1.0" fill="rgb(0,0,0)" stroke="rgb(130,0,228)" stroke-linejoin="miter" stroke-linecap="butt" stroke-width="2.424670378111785" stroke-miterlimit="10.0" fill-opacity="0.0"><path d="M 368.9434,511.7767 l 8.1377,-25.0452 l -8.1377,-25.0452 l -21.3047,-15.4788 l -26.3340,0.0000 l -21.3047,15.4788 l -8.1377,25.0452 l 8.1377,25.0452 l 21.3047,15.4788 l 26.3340,-0.0000 Z"/></g><g stroke-opacity="1.0" fill="rgb(0,0,0)" stroke="rgb(94,0,242)" stroke-linejoin="miter" stroke-linecap="butt" stroke-width="2.424670378111785" stroke-miterlimit="10.0" fill-opacity="0.0"><path d="M 377.0811,536.8219 l 8.1377,-25.0452 l -8.1377,-25.0452 l -21.3047,-15.4788 l -26.3340,0.0000 l -21.3047,15.4788 l -8.1377,25.0452 l 8.1377,25.0452 l 21.3047,15.4788 l 26.3340,-0.0000 Z"/></g><g stroke-opacity="1.0" fill="rgb(0,0,0)" stroke="rgb(0,0,255)" stroke-linejoin="miter" stroke-linecap="butt" stroke-width="2.424670378111785" stroke-miterlimit="10.0" fill-opacity="0.0"><path d="M 368.9434,561.8670 l 8.1377,-25.0452 l -8.1377,-25.0452 l -21.3047,-15.4788 l -26.3340,0.0000 l -21.3047,15.4788 l -8.1377,25.0452 l 8.1377,25.0452 l 21.3047,15.4788 l 26.3340,-0.0000 Z"/></g><g stroke-opacity="1.0" fill="rgb(0,0,0)" stroke="rgb(255,0,0)" stroke-linejoin="miter" stroke-linecap="butt" stroke-width="2.424670378111785" stroke-miterlimit="10.0" fill-opacity="0.0"><path d="M 155.4163,573.9719 l 5.1314,-29.1018 l -14.7754,-25.5917 l -27.7686,-10.1069 l -27.7686,10.1069 l -14.7754,25.5917 l 5.1314,29.1018 l 22.6372,18.9948 l 29.5507,0.0000 Z"/></g><g stroke-opacity="1.0" fill="rgb(0,0,0)" stroke="rgb(240,0,99)" stroke-linejoin="miter" stroke-linecap="butt" stroke-width="2.424670378111785" stroke-miterlimit="10.0" fill-opacity="0.0"><path d="M 125.8656,573.9719 l 5.1314,-29.1018 l -14.7754,-25.5917 l -27.7686,-10.1069 l -27.7686,10.1069 l -14.7754,25.5917 l 5.1314,29.1018 l 22.6372,18.9948 l 29.5507,0.0000 Z"/></g><g stroke-opacity="1.0" fill="rgb(0,0,0)" stroke="rgb(225,0,137)" stroke-linejoin="miter" stroke-linecap="butt" stroke-width="2.424670378111785" stroke-miterlimit="10.0" fill-opacity="0.0"><path d="M 103.2284,554.9770 l 5.1314,-29.1018 l -14.7754,-25.5917 l -27.7686,-10.1069 l -27.7686,10.1069 l -14.7754,25.5917 l 5.1314,29.1018 l 22.6372,18.9948 l 29.5507,0.0000 Z"/></g><g stroke-opacity="1.0" fill="rgb(0,0,0)" stroke="rgb(207,0,165)" stroke-linejoin="miter" stroke-linecap="butt" stroke-width="2.424670378111785" stroke-miterlimit="10.0" fill-opacity="0.0"><path d="M 98.0970,525.8752 l 5.1314,-29.1018 l -14.7754,-25.5917 l -27.7686,-10.1069 l -27.7686,10.1069 l -14.7754,25.5917 l 5.1314,29.1018 l 22.6372,18.9948 l 29.5507,0.0000 Z"/></g><g stroke-opacity="1.0" fill="rgb(0,0,0)" stroke="rgb(188,0,188)" stroke-linejoin="miter" stroke-linecap="butt" stroke-width="2.424670378111785" stroke-miterlimit="10.0" fill-opacity="0.0"><path d="M 112.8723,500.2835 l 5.1314,-29.1018 l -14.7754,-25.5917 l -27.7686,-10.1069 l -27.7686,10.1069 l -14.7754,25.5917 l 5.1314,29.1018 l 22.6372,18.9948 l 29.5507,0.0000 Z"/></g><g stroke-opacity="1.0" fill="rgb(0,0,0)" stroke="rgb(165,0,207)" stroke-linejoin="miter" stroke-linecap="butt" stroke-width="2.424670378111785" stroke-miterlimit="10.0" fill-opacity="0.0"><path d="M 140.6410,490.1766 l 5.1314,-29.1018 l -14.7754,-25.5917 l -27.7686,-10.1069 l -27.7686,10.1069 l -14.7754,25.5917 l 5.1314,29.1018 l 22.6372,18.9948 l 29.5507,0.0000 Z"/></g><g stroke-opacity="1.0" fill="rgb(0,0,0)" stroke="rgb(137,0,225)" stroke-linejoin="miter" stroke-linecap="butt" stroke-width="2.424670378111785" stroke-miterlimit="10.0" fill-opacity="0.0"><path d="M 168.4096,500.2835 l 5.1314,-29.1018 l -14.7754,-25.5917 l -27.7686,-10.1069 l -27.7686,10.1069 l -14.7754,25.5917 l 5.1314,29.1018 l 22.6372,18.9948 l 29.5507,0.0000 Z"/></g><g stroke-opacity="1.0" fill="rgb(0,0,0)" stroke="rgb(99,0,240)" stroke-linejoin="miter" stroke-linecap="butt" stroke-width="2.424670378111785" stroke-miterlimit="10.0" fill-opacity="0.0"><path d="M 183.1849,525.8752 l 5.1314,-29.1018 l -14.7754,-25.5917 l -27.7686,-10.1069 l -27.7686,10.1069 l -14.7754,25.5917 l 5.1314,29.1018 l 22.6372,18.9948 l 29.5507,0.0000 Z"/></g><g stroke-opacity="1.0" fill="rgb(0,0,0)" stroke="rgb(0,0,255)" stroke-linejoin="miter" stroke-linecap="butt" stroke-width="2.424670378111785" stroke-miterlimit="10.0" fill-opacity="0.0"><path d="M 178.0535,554.9770 l 5.1314,-29.1018 l -14.7754,-25.5917 l -27.7686,-10.1069 l -27.7686,10.1069 l -14.7754,25.5917 l 5.1314,29.1018 l 22.6372,18.9948 l 29.5507,0.0000 Z"/></g><g stroke-opacity="1.0" fill="rgb(0,0,0)" stroke="rgb(255,0,0)" stroke-linejoin="miter" stroke-linecap="butt" stroke-width="2.424670378111785" stroke-miterlimit="10.0" fill-opacity="0.0"><path d="M 555.0615,373.7141 l -0.0000,-34.6526 l -24.5031,-24.5031 l -34.6526,0.0000 l -24.5031,24.5031 l 0.0000,34.6526 l 24.5031,24.5031 l 34.6526,-0.0000 Z"/></g><g stroke-opacity="1.0" fill="rgb(0,0,0)" stroke="rgb(238,0,106)" stroke-linejoin="miter" stroke-linecap="butt" stroke-width="2.424670378111785" stroke-miterlimit="10.0" fill-opacity="0.0"><path d="M 520.4088,373.7141 l -0.0000,-34.6526 l -24.5031,-24.5031 l -34.6526,0.0000 l -24.5031,24.5031 l 0.0000,34.6526 l 24.5031,24.5031 l 34.6526,-0.0000 Z"/></g><g stroke-opacity="1.0" fill="rgb(0,0,0)" stroke="rgb(220,0,146)" stroke-linejoin="miter" stroke-linecap="butt" stroke-width="2.424670378111785" stroke-miterlimit="10.0" fill-opacity="0.0"><path d="M 495.9057,349.2110 l -0.0000,-34.6526 l -24.5031,-24.5031 l -34.6526,0.0000 l -24.5031,24.5031 l 0.0000,34.6526 l 24.5031,24.5031 l 34.6526,-0.0000 Z"/></g><g stroke-opacity="1.0" fill="rgb(0,0,0)" stroke="rgb(199,0,175)" stroke-linejoin="miter" stroke-linecap="butt" stroke-width="2.424670378111785" stroke-miterlimit="10.0" fill-opacity="0.0"><path d="M 495.9057,314.5584 l -0.0000,-34.6526 l -24.5031,-24.5031 l -34.6526,0.0000 l -24.5031,24.5031 l 0.0000,34.6526 l 24.5031,24.5031 l 34.6526,-0.0000 Z"/></g><g stroke-opacity="1.0" fill="rgb(0,0,0)" stroke="rgb(175,0,199)" stroke-linejoin="miter" stroke-linecap="butt" stroke-width="2.424670378111785" stroke-miterlimit="10.0" fill-opacity="0.0"><path d="M 520.4088,290.0553 l -0.0000,-34.6526 l -24.5031,-24.5031 l -34.6526,0.0000 l -24.5031,24.5031 l 0.0000,34.6526 l 24.5031,24.5031 l 34.6526,-0.0000 Z"/></g><g stroke-opacity="1.0" fill="rgb(0,0,0)" stroke="rgb(146,0,220)" stroke-linejoin="miter" stroke-linecap="butt" stroke-width="2.424670378111785" stroke-miterlimit="10.0" fill-opacity="0.0"><path d="M 555.0615,290.0553 l -0.0000,-34.6526 l -24.5031,-24.5031 l -34.6526,0.0000 l -24.5031,24.5031 l 0.0000,34.6526 l 24.5031,24.5031 l 34.6526,-0.0000 Z"/></g><g stroke-opacity="1.0" fill="rgb(0,0,0)" stroke="rgb(106,0,238)" stroke-linejoin="miter" stroke-linecap="butt" stroke-width="2.424670378111785" stroke-miterlimit="10.0" fill-opacity="0.0"><path d="M 579.5646,314.5584 l -0.0000,-34.6526 l -24.5031,-24.5031 l -34.6526,0.0000 l -24.5031,24.5031 l 0.0000,34.6526 l 24.5031,24.5031 l 34.6526,-0.0000 Z"/></g><g stroke-opacity="1.0" fill="rgb(0,0,0)" stroke="rgb(0,0,255)" stroke-linejoin="miter" stroke-linecap="butt" stroke-width="2.424670378111785" stroke-miterlimit="10.0" fill-opacity="0.0"><path d="M 579.5646,349.2110 l -0.0000,-34.6526 l -24.5031,-24.5031 l -34.6526,0.0000 l -24.5031,24.5031 l 0.0000,34.6526 l 24.5031,24.5031 l 34.6526,-0.0000 Z"/></g><g stroke-opacity="1.0" fill="rgb(0,0,0)" stroke="rgb(255,0,0)" stroke-linejoin="miter" stroke-linecap="butt" stroke-width="2.424670378111785" stroke-miterlimit="10.0" fill-opacity="0.0"><path d="M 361.5054,363.6073 l -8.4301,-36.9349 l -34.1329,-16.4376 l -34.1329,16.4376 l -8.4301,36.9349 l 23.6207,29.6195 l 37.8847,-0.0000 Z"/></g><g stroke-opacity="1.0" fill="rgb(0,0,0)" stroke="rgb(235,0,113)" stroke-linejoin="miter" stroke-linecap="butt" stroke-width="2.424670378111785" stroke-miterlimit="10.0" fill-opacity="0.0"><path d="M 323.6207,363.6073 l -8.4301,-36.9349 l -34.1329,-16.4376 l -34.1329,16.4376 l -8.4301,36.9349 l 23.6207,29.6195 l 37.8847,-0.0000 Z"/></g><g stroke-opacity="1.0" fill="rgb(0,0,0)" stroke="rgb(213,0,156)" stroke-linejoin="miter" stroke-linecap="butt" stroke-width="2.424670378111785" stroke-miterlimit="10.0" fill-opacity="0.0"><path d="M 300.0000,333.9879 l -8.4301,-36.9349 l -34.1329,-16.4376 l -34.1329,16.4376 l -8.4301,36.9349 l 23.6207,29.6195 l 37.8847,-0.0000 Z"/></g><g stroke-opacity="1.0" fill="rgb(0,0,0)" stroke="rgb(188,0,188)" stroke-linejoin="miter" stroke-linecap="butt" stroke-width="2.424670378111785" stroke-miterlimit="10.0" fill-opacity="0.0"><path d="M 308.4301,297.0530 l -8.4301,-36.9349 l -34.1329,-16.4376 l -34.1329,16.4376 l -8.4301,36.9349 l 23.6207,29.6195 l 37.8847,-0.0000 Z"/></g><g stroke-opacity="1.0" fill="rgb(0,0,0)" stroke="rgb(156,0,213)" stroke-linejoin="miter" stroke-linecap="butt" stroke-width="2.424670378111785" stroke-miterlimit="10.0" fill-opacity="0.0"><path d="M 342.5631,280.6155 l -8.4301,-36.9349 l -34.1329,-16.4376 l -34.1329,16.4376 l -8.4301,36.9349 l 23.6207,29.6195 l 37.8847,-0.0000 Z"/></g><g stroke-opacity="1.0" fill="rgb(0,0,0)" stroke="rgb(113,0,235)" stroke-linejoin="miter" stroke-linecap="butt" stroke-width="2.424670378111785" stroke-miterlimit="10.0" fill-opacity="0.0"><path d="M 376.6960,297.0530 l -8.4301,-36.9349 l -34.1329,-16.4376 l -34.1329,16.4376 l -8.4301,36.9349 l 23.6207,29.6195 l 37.8847,-0.0000 Z"/></g><g stroke-opacity="1.0" fill="rgb(0,0,0)" stroke="rgb(0,0,255)" stroke-linejoin="miter" stroke-linecap="butt" stroke-width="2.424670378111785" stroke-miterlimit="10.0" fill-opacity="0.0"><path d="M 385.1262,333.9879 l -8.4301,-36.9349 l -34.1329,-16.4376 l -34.1329,16.4376 l -8.4301,36.9349 l 23.6207,29.6195 l 37.8847,-0.0000 Z"/></g><g stroke-opacity="1.0" fill="rgb(0,0,0)" stroke="rgb(255,0,0)" stroke-linejoin="miter" stroke-linecap="butt" stroke-width="2.424670378111785" stroke-miterlimit="10.0" fill-opacity="0.0"><path d="M 103.2284,388.6493 l 21.3882,-37.0455 l -21.3882,-37.0455 l -42.7764,-0.0000 l -21.3882,37.0455 l 21.3882,37.0455 Z"/></g><g stroke-opacity="1.0" fill="rgb(0,0,0)" stroke="rgb(231,0,124)" stroke-linejoin="miter" stroke-linecap="butt" stroke-width="2.424670378111785" stroke-miterlimit="10.0" fill-opacity="0.0"><path d="M 81.8402,351.6039 l 21.3882,-37.0455 l -21.3882,-37.0455 l -42.7764,-0.0000 l -21.3882,37.0455 l 21.3882,37.0455 Z"/></g><g stroke-opacity="1.0" fill="rgb(0,0,0)" stroke="rgb(203,0,170)" stroke-linejoin="miter" stroke-linecap="butt" stroke-width="2.424670378111785" stroke-miterlimit="10.0" fill-opacity="0.0"><path d="M 103.2284,314.5584 l 21.3882,-37.0455 l -21.3882,-37.0455 l -42.7764,-0.0000 l -21.3882,37.0455 l 21.3882,37.0455 Z"/></g><g stroke-opacity="1.0" fill="rgb(0,0,0)" stroke="rgb(170,0,203)" stroke-linejoin="miter" stroke-linecap="butt" stroke-width="2.424670378111785" stroke-miterlimit="10.0" fill-opacity="0.0"><path d="M 146.0048,314.5584 l 21.3882,-37.0455 l -21.3882,-37.0455 l -42.7764,-0.0000 l -21.3882,37.0455 l 21.3882,37.0455 Z"/></g><g stroke-opacity="1.0" fill="rgb(0,0,0)" stroke="rgb(124,0,231)" stroke-linejoin="miter" stroke-linecap="butt" stroke-width="2.424670378111785" stroke-miterlimit="10.0" fill-opacity="0.0"><path d="M 167.3931,351.6039 l 21.3882,-37.0455 l -21.3882,-37.0455 l -42.7764,-0.0000 l -21.3882,37.0455 l 21.3882,37.0455 Z"/></g><g stroke-opacity="1.0" fill="rgb(0,0,0)" stroke="rgb(0,0,255)" stroke-linejoin="miter" stroke-linecap="butt" stroke-width="2.424670378111785" stroke-miterlimit="10.0" fill-opacity="0.0"><path d="M 146.0048,388.6493 l 21.3882,-37.0455 l -21.3882,-37.0455 l -42.7764,-0.0000 l -21.3882,37.0455 l 21.3882,37.0455 Z"/></g><g stroke-opacity="1.0" fill="rgb(0,0,0)" stroke="rgb(255,0,0)" stroke-linejoin="miter" stroke-linecap="butt" stroke-width="2.424670378111785" stroke-miterlimit="10.0" fill-opacity="0.0"><path d="M 495.0398,188.9549 l 16.2753,-50.0903 l -42.6094,-30.9575 l -42.6094,30.9575 l 16.2753,50.0903 Z"/></g><g stroke-opacity="1.0" fill="rgb(0,0,0)" stroke="rgb(225,0,137)" stroke-linejoin="miter" stroke-linecap="butt" stroke-width="2.424670378111785" stroke-miterlimit="10.0" fill-opacity="0.0"><path d="M 478.7645,138.8646 l 16.2753,-50.0903 l -42.6094,-30.9575 l -42.6094,30.9575 l 16.2753,50.0903 Z"/></g><g stroke-opacity="1.0" fill="rgb(0,0,0)" stroke="rgb(188,0,188)" stroke-linejoin="miter" stroke-linecap="butt" stroke-width="2.424670378111785" stroke-miterlimit="10.0" fill-opacity="0.0"><path d="M 521.3739,107.9070 l 16.2753,-50.0903 l -42.6094,-30.9575 l -42.6094,30.9575 l 16.2753,50.0903 Z"/></g><g stroke-opacity="1.0" fill="rgb(0,0,0)" stroke="rgb(137,0,225)" stroke-linejoin="miter" stroke-linecap="butt" stroke-width="2.424670378111785" stroke-miterlimit="10.0" fill-opacity="0.0"><path d="M 563.9833,138.8646 l 16.2753,-50.0903 l -42.6094,-30.9575 l -42.6094,30.9575 l 16.2753,50.0903 Z"/></g><g stroke-opacity="1.0" fill="rgb(0,0,0)" stroke="rgb(0,0,255)" stroke-linejoin="miter" stroke-linecap="butt" stroke-width="2.424670378111785" stroke-miterlimit="10.0" fill-opacity="0.0"><path d="M 547.7079,188.9549 l 16.2753,-50.0903 l -42.6094,-30.9575 l -42.6094,30.9575 l 16.2753,50.0903 Z"/></g><g stroke-opacity="1.0" fill="rgb(0,0,0)" stroke="rgb(255,0,0)" stroke-linejoin="miter" stroke-linecap="butt" stroke-width="2.424670378111785" stroke-miterlimit="10.0" fill-opacity="0.0"><path d="M 299.1341,197.7301 l -0.0000,-81.2666 l -81.2666,0.0000 l 0.0000,81.2666 Z"/></g><g stroke-opacity="1.0" fill="rgb(0,0,0)" stroke="rgb(213,0,156)" stroke-linejoin="miter" stroke-linecap="butt" stroke-width="2.424670378111785" stroke-miterlimit="10.0" fill-opacity="0.0"><path d="M 299.1341,116.4635 l -0.0000,-81.2666 l -81.2666,0.0000 l 0.0000,81.2666 Z"/></g><g stroke-opacity="1.0" fill="rgb(0,0,0)" stroke="rgb(156,0,213)" stroke-linejoin="miter" stroke-linecap="butt" stroke-width="2.424670378111785" stroke-miterlimit="10.0" fill-opacity="0.0"><path d="M 380.4007,116.4635 l -0.0000,-81.2666 l -81.2666,0.0000 l 0.0000,81.2666 Z"/></g><g stroke-opacity="1.0" fill="rgb(0,0,0)" stroke="rgb(0,0,255)" stroke-linejoin="miter" stroke-linecap="butt" stroke-width="2.424670378111785" stroke-miterlimit="10.0" fill-opacity="0.0"><path d="M 380.4007,197.7301 l -0.0000,-81.2666 l -81.2666,0.0000 l 0.0000,81.2666 Z"/></g><g stroke-opacity="1.0" fill="rgb(0,0,0)" stroke="rgb(255,0,0)" stroke-linejoin="miter" stroke-linecap="butt" stroke-width="2.424670378111785" stroke-miterlimit="10.0" fill-opacity="0.0"><path d="M 103.2284,165.8575 l -42.7764,-74.0910 l -42.7764,74.0910 Z"/></g><g stroke-opacity="1.0" fill="rgb(0,0,0)" stroke="rgb(188,0,188)" stroke-linejoin="miter" stroke-linecap="butt" stroke-width="2.424670378111785" stroke-miterlimit="10.0" fill-opacity="0.0"><path d="M 146.0048,91.7665 l -42.7764,-74.0910 l -42.7764,74.0910 Z"/></g><g stroke-opacity="1.0" fill="rgb(0,0,0)" stroke="rgb(0,0,255)" stroke-linejoin="miter" stroke-linecap="butt" stroke-width="2.424670378111785" stroke-miterlimit="10.0" fill-opacity="0.0"><path d="M 188.7813,165.8575 l -42.7764,-74.0910 l -42.7764,74.0910 Z"/></g></svg>